HIERARCHY
ROOT Hips
{
	OFFSET 0.00000 0.00000 0.00000
	CHANNELS 6 Xposition Yposition Zposition Zrotation Yrotation Xrotation 
	JOINT LHipJoint
	{
		OFFSET 0 0 0
		CHANNELS 3 Zrotation Yrotation Xrotation
		JOINT LeftUpLeg
		{
			OFFSET 1.48831 -1.59570 0.95625
			CHANNELS 3 Zrotation Yrotation Xrotation
			JOINT LeftLeg
			{
				OFFSET 2.20856 -6.06797 0.00000
				CHANNELS 3 Zrotation Yrotation Xrotation
				JOINT LeftFoot
				{
					OFFSET 2.62924 -7.22379 0.00000
					CHANNELS 3 Zrotation Yrotation Xrotation
					JOINT LeftToeBase
					{
						OFFSET 0.16802 -0.46163 2.41673
						CHANNELS 3 Zrotation Yrotation Xrotation
						End Site
						{
							OFFSET 0.00000 -0.00000 1.23760
						}
					}
				}
			}
		}
	}
	JOINT RHipJoint
	{
		OFFSET 0 0 0
		CHANNELS 3 Zrotation Yrotation Xrotation
		JOINT RightUpLeg
		{
			OFFSET -1.56796 -1.59570 0.95625
			CHANNELS 3 Zrotation Yrotation Xrotation
			JOINT RightLeg
			{
				OFFSET -2.29239 -6.29829 0.00000
				CHANNELS 3 Zrotation Yrotation Xrotation
				JOINT RightFoot
				{
					OFFSET -2.66963 -7.33475 0.00000
					CHANNELS 3 Zrotation Yrotation Xrotation
					JOINT RightToeBase
					{
						OFFSET -0.18185 -0.49964 2.34359
						CHANNELS 3 Zrotation Yrotation Xrotation
						End Site
						{
							OFFSET -0.00000 -0.00000 1.20477
						}
					}
				}
			}
		}
	}
	JOINT LowerBack
	{
		OFFSET 0 0 0
		CHANNELS 3 Zrotation Yrotation Xrotation
		JOINT Spine
		{
			OFFSET 0.03505 2.15832 -0.34324
			CHANNELS 3 Zrotation Yrotation Xrotation
			JOINT Spine1
			{
				OFFSET -0.01089 2.17963 0.04689
				CHANNELS 3 Zrotation Yrotation Xrotation
				JOINT Neck
				{
					OFFSET 0 0 0
					CHANNELS 3 Zrotation Yrotation Xrotation
					JOINT Neck1
					{
						OFFSET 0.04686 1.69404 0.22159
						CHANNELS 3 Zrotation Yrotation Xrotation
						JOINT Head
						{
							OFFSET 0.00265 1.69305 -0.01513
							CHANNELS 3 Zrotation Yrotation Xrotation
							End Site
							{
								OFFSET -0.00415 1.80215 -0.03034
							}
						}
					}
				}
				JOINT LeftShoulder
				{
					OFFSET 0 0 0
					CHANNELS 3 Zrotation Yrotation Xrotation
					JOINT LeftArm
					{
						OFFSET 3.67184 1.11724 -0.19002
						CHANNELS 3 Zrotation Yrotation Xrotation
						JOINT LeftForeArm
						{
							OFFSET 5.17714 -0.00000 -0.00000
							CHANNELS 3 Zrotation Yrotation Xrotation
							JOINT LeftHand
							{
								OFFSET 3.43679 -0.00000 -0.00000
								CHANNELS 3 Zrotation Yrotation Xrotation
								JOINT LeftFingerBase
								{
									OFFSET 0 0 0
									CHANNELS 3 Zrotation Yrotation Xrotation
									JOINT LeftHandIndex1
									{
										OFFSET 0.57312 -0.00000 -0.00000
										CHANNELS 3 Zrotation Yrotation Xrotation
										End Site
										{
											OFFSET 0.46206 -0.00000 -0.00000
										}
									}
								}
								JOINT LThumb
								{
									OFFSET 0 0 0
									CHANNELS 3 Zrotation Yrotation Xrotation
									End Site
									{
										OFFSET 0.46912 -0.00000 0.46912
									}
								}
							}
						}
					}
				}
				JOINT RightShoulder
				{
					OFFSET 0 0 0
					CHANNELS 3 Zrotation Yrotation Xrotation
					JOINT RightArm
					{
						OFFSET -3.59596 0.95831 -0.26050
						CHANNELS 3 Zrotation Yrotation Xrotation
						JOINT RightForeArm
						{
							OFFSET -5.23908 -0.00000 -0.00000
							CHANNELS 3 Zrotation Yrotation Xrotation
							JOINT RightHand
							{
								OFFSET -3.46485 -0.00000 -0.00000
								CHANNELS 3 Zrotation Yrotation Xrotation
								JOINT RightFingerBase
								{
									OFFSET 0 0 0
									CHANNELS 3 Zrotation Yrotation Xrotation
									JOINT RightHandIndex1
									{
										OFFSET -0.60875 -0.00000 -0.00000
										CHANNELS 3 Zrotation Yrotation Xrotation
										End Site
										{
											OFFSET -0.49079 -0.00000 -0.00000
										}
									}
								}
								JOINT RThumb
								{
									OFFSET 0 0 0
									CHANNELS 3 Zrotation Yrotation Xrotation
									End Site
									{
										OFFSET -0.49829 -0.00000 0.49829
									}
								}
							}
						}
					}
				}
			}
		}
	}
}
MOTION
Frames: 10
Frame Time: .0083333
6.8153 16.3265 -4.3705 0 0 0 0 0 0 -21 0 0 0 0 0 0 0 0 0 0 0 0 0 0 21 0 0 0 0 0 0 0 0 0 0 0 0 0 0 0 0 0 0 0 0 0 0 -16 0 0 21 0 0 11 0 0 0 -8 0 0 0 0 0 0 0 0 0 0 0 0 0 0 0 0 0 0 0 0 8 0 0 0 0 0 0 0 0 0 0 0 0 0 0 0 0 0
6.8153 16.3265 -4.3705 -48.6766 -86.0975 45.8282 0.0000 0.0000 0.0000 -17.6933 3.6098 -4.3163 1.8936 8.6408 24.6780 1.3036 -0.9952 -21.2877 0.0039 -0.4058 -1.1149 0.0000 0.0000 0.0000 27.1822 7.0215 -8.5625 -3.6780 -11.7191 34.7455 -1.8299 -1.6849 -26.2232 -0.0694 -1.6997 4.6764 3.2708 -0.6833 -0.9945 0.6212 -1.0491 2.7574 -1.2339 -0.4572 3.3491 4.0926 2.1014 -4.6151 1.0895 2.3576 7.6041 -0.2580 1.3092 3.2990 -0.0000 0.0000 0.0000 -88.0979 -2.8352 15.5168 11.6163 -19.2268 -1.9741 -0.0000 0.0000 -18.6934 15.5220 9.5557 2.6398 -7.1250 0.0000 -0.0000 -9.9840 39.6976 1.3200 -0.0000 0.0000 0.0000 90.2664 2.3209 14.1586 -13.2697 21.6812 -2.5521 0.0000 0.0000 3.1756 -19.7160 -5.1395 1.8387 7.1250 -0.0000 -0.0000 5.8025 -35.3888 1.3759
6.8145 16.3267 -4.3719 -48.9827 -86.0951 46.1431 0.0000 0.0000 0.0000 -17.6682 3.6476 -4.3413 1.8944 8.6426 24.6834 1.3013 -0.9660 -21.2770 0.0054 -0.4755 -1.3066 0.0000 0.0000 0.0000 27.2020 7.0092 -8.5747 -3.6765 -11.7170 34.7381 -1.8253 -1.6982 -26.1958 -0.0690 -1.6941 4.6610 3.2854 -0.6821 -1.0051 0.6231 -1.0484 2.7568 -1.2403 -0.4564 3.3544 4.1290 2.1121 -4.5920 1.0522 2.3738 7.5887 -0.2761 1.3166 3.2908 0.0000 -0.0000 0.0000 -88.0877 -2.8556 15.5082 11.6179 -19.2291 -1.9746 -0.0000 0.0000 -18.7105 15.4967 9.5338 2.6293 -7.1250 0.0000 -0.0000 -10.0015 39.6732 1.3285 0.0000 -0.0000 0.0000 90.2732 2.3190 14.1073 -13.2614 21.6690 -2.5490 0.0000 0.0000 3.2411 -19.6830 -5.1508 1.8394 7.1250 -0.0000 -0.0000 5.8310 -35.3991 1.3812
6.8169 16.3295 -4.3757 -48.3164 -86.0395 45.5554 0.0000 0.0000 0.0000 -17.6469 3.5646 -4.4272 1.8951 8.6440 24.6880 1.2989 -0.9860 -21.2507 0.0052 -0.4648 -1.2771 0.0000 0.0000 0.0000 27.2217 7.0271 -8.6598 -3.6744 -11.7140 34.7277 -1.8280 -1.7240 -26.2248 -0.0693 -1.6984 4.6728 3.2810 -0.7009 -1.0148 0.6181 -1.0715 2.7088 -1.2436 -0.4687 3.3090 4.1511 2.1122 -4.5536 1.0447 2.3748 7.5751 -0.2828 1.3170 3.2793 -0.0000 -0.0000 0.0000 -88.0632 -2.8405 15.5084 11.6210 -19.2339 -1.9757 -0.0000 0.0000 -18.6868 15.4513 9.4865 2.6084 -7.1250 0.0000 -0.0000 -10.0316 39.6214 1.3455 -0.0000 -0.0000 0.0000 90.3040 2.2939 14.0427 -13.2554 21.6603 -2.5468 0.0000 0.0000 3.2508 -19.6939 -5.1838 1.8523 7.1250 -0.0000 -0.0000 5.8255 -35.4344 1.3749
6.8155 16.3282 -4.3767 -48.6964 -86.0621 45.9083 0.0000 0.0000 0.0000 -17.6431 3.5873 -4.3965 1.8961 8.6462 24.6948 1.3017 -0.9634 -21.2805 0.0051 -0.4634 -1.2733 0.0000 0.0000 0.0000 27.2309 7.0181 -8.6251 -3.6729 -11.7119 34.7201 -1.8270 -1.7163 -26.2151 -0.0690 -1.6946 4.6623 3.2825 -0.6924 -1.0000 0.6199 -1.0605 2.7269 -1.2421 -0.4630 3.3199 4.1608 2.1195 -4.5531 1.0238 2.3863 7.5555 -0.2909 1.3221 3.2731 0.0000 0.0000 0.0000 -88.0921 -2.9444 15.3597 11.5386 -19.1091 -1.9486 -0.0000 0.0000 -18.6586 15.6110 9.0311 2.5113 -7.1250 0.0000 -0.0000 -9.8103 39.1699 1.4253 0.0000 0.0000 0.0000 90.2974 2.3124 13.9804 -13.2393 21.6369 -2.5409 0.0000 0.0000 3.2983 -19.6689 -5.1620 1.8420 7.1250 -0.0000 -0.0000 5.8439 -35.4102 1.3827
6.8156 16.3285 -4.3787 -48.8046 -86.0532 46.0297 0.0000 0.0000 0.0000 -17.6246 3.5744 -4.4138 1.8975 8.6493 24.7043 1.3023 -0.9535 -21.2890 0.0052 -0.4637 -1.2742 0.0000 0.0000 0.0000 27.2518 7.0222 -8.6332 -3.6703 -11.7082 34.7075 -1.8265 -1.7247 -26.2148 -0.0692 -1.6972 4.6695 3.2894 -0.6928 -0.9989 0.6200 -1.0611 2.7222 -1.2457 -0.4633 3.3143 4.1806 2.1246 -4.5355 1.0060 2.3945 7.5341 -0.3001 1.3257 3.2631 0.0000 0.0000 0.0000 -88.0920 -2.9844 15.3384 11.5008 -19.0517 -1.9362 -0.0000 0.0000 -18.7343 15.7430 8.6195 2.4192 -7.1250 0.0000 -0.0000 -9.6239 38.7598 1.4957 0.0000 0.0000 0.0000 90.3077 2.3151 13.9175 -13.2282 21.6207 -2.5368 0.0000 0.0000 3.3376 -19.6649 -5.1597 1.8408 7.1250 -0.0000 -0.0000 5.8469 -35.4076 1.3838
6.8154 16.3287 -4.3806 -49.0086 -86.0472 46.2413 0.0000 0.0000 0.0000 -17.6045 3.5633 -4.4246 1.8992 8.6529 24.7154 1.3035 -0.9373 -21.3033 0.0052 -0.4640 -1.2750 0.0000 0.0000 0.0000 27.2764 7.0302 -8.6348 -3.6684 -11.7055 34.6980 -1.8262 -1.7340 -26.2163 -0.0692 -1.6977 4.6710 3.2990 -0.6908 -0.9965 0.6202 -1.0585 2.7212 -1.2508 -0.4618 3.3119 4.1993 2.1287 -4.5178 0.9917 2.4013 7.5098 -0.3080 1.3287 3.2521 0.0000 -0.0000 0.0000 -88.0889 -3.0219 15.3411 11.4662 -18.9993 -1.9250 -0.0000 0.0000 -18.8460 15.8950 8.1710 2.3177 -7.1250 0.0000 -0.0000 -9.4175 38.3124 1.5675 0.0000 -0.0000 0.0000 90.3187 2.3196 13.8568 -13.2164 21.6035 -2.5324 0.0000 0.0000 3.3712 -19.6702 -5.1529 1.8389 7.1250 -0.0000 -0.0000 5.8419 -35.4007 1.3836
6.8149 16.3286 -4.3824 -49.3418 -86.0475 46.5734 0.0000 0.0000 0.0000 -17.5844 3.5589 -4.4258 1.9012 8.6572 24.7287 1.3054 -0.9146 -21.3261 0.0052 -0.4634 -1.2734 0.0000 0.0000 0.0000 27.3028 7.0395 -8.6231 -3.6658 -11.7019 34.6853 -1.8254 -1.7416 -26.2142 -0.0693 -1.6987 4.6736 3.3102 -0.6853 -0.9937 0.6208 -1.0516 2.7257 -1.2562 -0.4580 3.3151 4.2144 2.1326 -4.5002 0.9831 2.4078 7.4839 -0.3134 1.3316 3.2403 -0.0000 0.0000 0.0000 -88.0835 -3.0575 15.3601 11.4420 -18.9625 -1.9171 -0.0000 0.0000 -18.9696 16.0363 7.7751 2.2268 -7.1250 0.0000 -0.0000 -9.2321 37.9168 1.6266 -0.0000 0.0000 0.0000 90.3288 2.3259 13.7982 -13.2038 21.5851 -2.5278 0.0000 0.0000 3.4032 -19.6775 -5.1487 1.8381 7.1250 -0.0000 -0.0000 5.8354 -35.3967 1.3826
6.8143 16.3286 -4.3841 -49.6741 -86.0488 46.9039 0.0000 0.0000 0.0000 -17.5662 3.5549 -4.4254 1.9030 8.6611 24.7407 1.3073 -0.8864 -21.3502 0.0052 -0.4656 -1.2794 0.0000 0.0000 0.0000 27.3278 7.0479 -8.6105 -3.6633 -11.6983 34.6730 -1.8247 -1.7488 -26.2116 -0.0693 -1.6982 4.6723 3.3205 -0.6793 -0.9922 0.6212 -1.0441 2.7313 -1.2613 -0.4539 3.3203 4.2260 2.1357 -4.4830 0.9796 2.4127 7.4581 -0.3167 1.3338 3.2284 -0.0000 -0.0000 0.0000 -88.0739 -3.0879 15.3997 11.4344 -18.9511 -1.9146 -0.0000 0.0000 -19.0901 16.1413 7.5011 2.1637 -7.1250 0.0000 -0.0000 -9.0995 37.6429 1.6645 -0.0000 -0.0000 0.0000 90.3397 2.3319 13.7397 -13.1916 21.5674 -2.5233 0.0000 0.0000 3.4291 -19.6906 -5.1440 1.8378 7.1250 -0.0000 -0.0000 5.8241 -35.3923 1.3806
6.8135 16.3284 -4.3856 -49.9922 -86.0530 47.2156 0.0000 0.0000 0.0000 -17.5529 3.5546 -4.4181 1.9044 8.6641 24.7503 1.3094 -0.8557 -21.3768 0.0053 -0.4704 -1.2926 0.0000 0.0000 0.0000 27.3476 7.0493 -8.5951 -3.6610 -11.6951 34.6618 -1.8239 -1.7494 -26.2069 -0.0691 -1.6955 4.6649 3.3295 -0.6722 -0.9904 0.6207 -1.0351 2.7392 -1.2665 -0.4491 3.3278 4.2328 2.1376 -4.4668 0.9819 2.4160 7.4353 -0.3173 1.3353 3.2176 -0.0000 0.0000 0.0000 -88.0637 -3.1224 15.4323 11.4346 -18.9513 -1.9147 -0.0000 0.0000 -19.1754 16.2026 7.3446 2.1273 -7.1250 0.0000 -0.0000 -9.0230 37.4863 1.6852 -0.0000 0.0000 0.0000 90.3499 2.3367 13.6790 -13.1798 21.5501 -2.5189 0.0000 0.0000 3.4516 -19.7038 -5.1401 1.8377 7.1250 -0.0000 -0.0000 5.8127 -35.3888 1.3783
